<!DOCTYPE svg PUBLIC "-//W3C//DTD SVG 1.1//EN" "http://www.w3.org/Graphics/SVG/1.1/DTD/svg11.dtd">
<!-- Uploaded to: SVG Repo, www.svgrepo.com, Transformed by: SVG Repo Mixer Tools -->
<svg width="800px" height="800px" viewBox="0 0 64 64" data-name="Lovely Valentine's day" id="Lovely_Valentine_s_day" xmlns="http://www.w3.org/2000/svg" fill="#000000">
<g id="SVGRepo_bgCarrier" stroke-width="0"/>
<g id="SVGRepo_tracerCarrier" stroke-linecap="round" stroke-linejoin="round"/>
<g id="SVGRepo_iconCarrier">
<defs>
<style>.cls-1{fill:#ffffff;}.cls-2{fill:#bfbfbf;}.cls-3{fill:#623905;}.cls-4{fill:#268484;}.cls-5{fill:#2c9ea5;}.cls-6{fill:#842835;}</style>
</defs>
<title/>
<circle class="cls-1" cx="32" cy="32" r="28"/>
<path class="cls-2" d="M42.809,36.075h4.019a.991.991,0,0,1,.991.991V51.579a1.981,1.981,0,0,1-1.981,1.981H43.8a1.981,1.981,0,0,1-1.981-1.981V37.066a.991.991,0,0,1,.991-.991Z" transform="translate(-18.564 44.818) rotate(-45)"/>
<path class="cls-3" d="M48.878,53.3a2.97,2.97,0,0,1-2.107-.871L36.508,42.165a1.991,1.991,0,0,1,0-2.816l2.841-2.841a2,2,0,0,1,2.815,0L52.427,46.771a2.979,2.979,0,0,1,0,4.215l-1.441,1.442A2.973,2.973,0,0,1,48.878,53.3ZM40.751,37.922l-2.829,2.842,10.263,10.25a.984.984,0,0,0,1.388,0l1.44-1.442h0a.979.979,0,0,0,0-1.387Z"/>
<rect class="cls-4" height="4" transform="translate(-15.438 37.246) rotate(-45)" width="4.268" x="35.107" y="35.259"/>
<path class="cls-3" d="M37.146,41.182a1,1,0,0,1-.707-.293l-2.828-2.828a1,1,0,0,1,0-1.415l3.018-3.017a1,1,0,0,1,1.414,0l2.828,2.828a1,1,0,0,1,0,1.414l-3.017,3.018A1,1,0,0,1,37.146,41.182Zm-1.414-3.828,1.414,1.414,1.6-1.6L37.336,35.75Z"/>
<circle class="cls-2" cx="26" cy="26" r="14"/>
<path class="cls-3" d="M26,41A15,15,0,1,1,41,26,15.017,15.017,0,0,1,26,41Zm0-28A13,13,0,1,0,39,26,13.015,13.015,0,0,0,26,13Z"/>
<circle class="cls-4" cx="26" cy="26" r="10"/>
<path class="cls-3" d="M26,37A11,11,0,1,1,37,26,11.013,11.013,0,0,1,26,37Zm0-20a9,9,0,1,0,9,9A9.01,9.01,0,0,0,26,17Z"/>
<circle class="cls-5" cx="26" cy="26" r="7"/>
<path class="cls-6" d="M21.081,24.305a2.276,2.276,0,0,0,.676,1.63l1.63,1.63,1.676,1.68a1.152,1.152,0,0,0,1.631,0l1.675-1.68,1.541-1.541a2.393,2.393,0,0,0,.341-3.052,2.306,2.306,0,0,0-3.511-.3l-.862.861-.76-.761a2.419,2.419,0,0,0-2.916-.443A2.274,2.274,0,0,0,21.081,24.305Z"/>
<path class="cls-3" d="M25.878,30.584a2.138,2.138,0,0,1-1.524-.633l-3.3-3.309a3.3,3.3,0,0,1,.639-5.168,3.4,3.4,0,0,1,4.136.594l.053.054.155-.154a3.306,3.306,0,0,1,5.03.42,3.4,3.4,0,0,1-.446,4.342L27.4,29.951A2.135,2.135,0,0,1,25.878,30.584Zm-2.54-7.56a1.205,1.205,0,0,0-.622.166,1.3,1.3,0,0,0-.258,2.032l3.313,3.317a.132.132,0,0,0,.215,0L29.2,25.316a1.405,1.405,0,0,0,.236-1.76,1.307,1.307,0,0,0-1.992-.174l-.862.861a1,1,0,0,1-1.414,0l-.76-.761A1.543,1.543,0,0,0,23.338,23.024Z"/>
</g>
</svg>